# xmcd
#
# Track frame offsets:
# 150
# 14677
# 38595
# 50617
# 73277
# 98540
# 118115
# 137765
# 159942
# 182627
# 197355
#
# Disc length: 2981 seconds
#
#
# Revision: 0
# Processed by: cddbd v1.4PL0 Copyright (c) Steve Scherf et al.
# Submitted via: FreeRIP 2.35 
#
DISCID=900ba30b
DTITLE=Intensely Mellow - Mellowed With Rage
DYEAR=1995
DGENRE=Rock
TTITLE0=Devil Woman
TTITLE1=Do as your told
TTITLE2=Hangover
TTITLE3=9" Grinder
TTITLE4=If it's Feral
TTITLE5=Straight in Heaven
TTITLE6=Nooses
TTITLE7=Little Girl
TTITLE8=5 O'Clock
TTITLE9=Big Bad Dad
TTITLE10=Drug F**cked
EXTD=
EXTT0=
EXTT1=
EXTT2=
EXTT3=
EXTT4=
EXTT5=
EXTT6=
EXTT7=
EXTT8=
EXTT9=
EXTT10=
PLAYORDER=
